# xmcd
#
# Track frame offsets:
#	150
#	12888
#	19018
#	31995
#	40327
#	50254
#	56262
#	69658
#	87188
#	94497
#	105736
#	111642
#	119831
#
# Disc length: 1672 seconds
#
# Revision: 0
# Processed by: cddbd v1.5.2PL0 Copyright (c) Steve Scherf et al.
# Submitted via: EZCDAudioConverter 2.1.5.1
#
DISCID=b006860d
DTITLE=Appalucia
DYEAR=2011
DGENRE=
TTITLE0=Run Devil Run
TTITLE1=This Land
TTITLE2=Send 'Em Home
TTITLE3=Righteous Man
TTITLE4=What Man Would Want You Now
TTITLE5=Bears
TTITLE6=Sunday Morning Repent
TTITLE7=Bad Luck Blues
TTITLE8=Satan
TTITLE9=Face Down
TTITLE10=Believe in God (If Y'ant To)
TTITLE11=Liquor House (Right Now)
TTITLE12=Ding-a-Ling
EXTD=
EXTT0=
EXTT1=
EXTT2=
EXTT3=
EXTT4=
EXTT5=
EXTT6=
EXTT7=
EXTT8=
EXTT9=
EXTT10=
EXTT11=
EXTT12=
PLAYORDER=
